<svg  aria-hidden="true" xmlns="http://www.w3.org/2000/svg" xmlns:xlink="http://www.w3.org/1999/xlink"  viewBox="0 0 14 14" 

      width="12" height="12" 
><g data-v-b5c5049e="" transform="translate(2.116699, 3.334961)"><path data-v-b5c5049e="" d="M-0.907766,2.3546648h2.2719603c0.764268,0,1.208933-0.444665,1.208933-1.1811414v-2.3344913
      c0-0.7364764-0.444665-1.1741936-1.208933-1.1741936H-0.907766c-0.764268,0-1.208933,0.4377172-1.208933,1.1741936v2.3344913
      C-2.116699,1.9099998-1.672034,2.3546648-0.907766,2.3546648z M4.5880156-1.2860299h6.7602978
      c0.2918119,0,0.5349874-0.2292804,0.5349874-0.5280397c0-0.2918113-0.2431755-0.5210918-0.5349874-0.5210918H4.5880156
      c-0.298759,0-0.5280395,0.2292805-0.5280395,0.5210918C4.0599761-1.5153103,4.2892566-1.2860299,4.5880156-1.2860299z
      M4.5880156,2.3546648h6.7602978c0.2918119,0,0.5349874-0.2292802,0.5349874-0.5280396
      c0-0.2918115-0.2431755-0.5210918-0.5349874-0.5210918H4.5880156c-0.298759,0-0.5280395,0.2292804-0.5280395,0.5210918
      C4.0599761,2.1253846,4.2892566,2.3546648,4.5880156,2.3546648z M-0.907766,9.6291065h2.2719603
      c0.764268,0,1.208933-0.4377174,1.208933-1.1741934V6.1204219c0-0.7364764-0.444665-1.1741939-1.208933-1.1741939H-0.907766
      c-0.764268,0-1.208933,0.4377174-1.208933,1.1741939v2.3344913C-2.116699,9.1913891-1.672034,9.6291065-0.907766,9.6291065z
      M4.5880156,5.9953599h6.7602978c0.2918119,0,0.5349874-0.2362285,0.5349874-0.5280399S11.6401253,4.946228,11.3483133,4.946228
      H4.5880156c-0.298759,0-0.5280395,0.2292805-0.5280395,0.5210919S4.2892566,5.9953599,4.5880156,5.9953599z M4.5880156,9.6291065
      h6.7602978c0.2918119,0,0.5349874-0.2292805,0.5349874-0.5210915c0-0.2918119-0.2431755-0.5280399-0.5349874-0.5280399H4.5880156
      c-0.298759,0-0.5280395,0.236228-0.5280395,0.5280399C4.0599761,9.399826,4.2892566,9.6291065,4.5880156,9.6291065z"></path></g></svg>